# xmcd CD database file
#
# Track frame offsets:
#	150
#	17229
#	30817
#	45488
#	65869
#	82778
#	95540
#	115234
#	124953
#	138696
#
# Disc length: 2222 seconds
#
# Revision: 0
# Processed by: cddbd v1.5.2PL0 Copyright (c) Steve Scherf et al.
# Submitted via: CDex 1.70beta2
#
DISCID=8108ac0a
DTITLE=The Almost Three - What?
DYEAR=2009
DGENRE=Blues
TTITLE0=CO2
TTITLE1=How Do You Feel
TTITLE2=Horse Race
TTITLE3=Understand
TTITLE4=Talking In A Box
TTITLE5=Heavy Funk
TTITLE6=Anywhere
TTITLE7=Sliding
TTITLE8=Happy
TTITLE9=Brush With The Blues
EXTD=YEAR: 2009
EXTT0=
EXTT1=
EXTT2=
EXTT3=
EXTT4=
EXTT5=
EXTT6=
EXTT7=
EXTT8=
EXTT9=
PLAYORDER=
